<svg width="298" height="225" viewBox="0 0 298 225" fill="none" xmlns="http://www.w3.org/2000/svg">
<path d="M2.372 57.6948C2.34 57.6948 2.324 57.6468 2.324 57.5508C2.324 57.4548 2.34 57.4068 2.372 57.4068C3.14 57.4068 3.708 57.3668 4.076 57.2868C4.46 57.1908 4.724 57.0308 4.868 56.8068C5.012 56.5828 5.084 56.2308 5.084 55.7508V45.5028C5.084 44.7348 4.892 44.3508 4.508 44.3508C4.3 44.3508 4.012 44.4548 3.644 44.6628C3.292 44.8548 2.828 45.1668 2.252 45.5988L2.204 45.6228C2.14 45.6228 2.092 45.5828 2.06 45.5028C2.028 45.4228 2.044 45.3668 2.108 45.3348L5.9 42.5268C5.98 42.4788 6.036 42.4548 6.068 42.4548C6.1 42.4548 6.124 42.4708 6.14 42.5028C6.172 42.5348 6.188 42.5668 6.188 42.5988V55.7508C6.188 56.2468 6.252 56.6068 6.38 56.8308C6.508 57.0548 6.756 57.2068 7.124 57.2868C7.492 57.3668 8.084 57.4068 8.9 57.4068C8.932 57.4068 8.948 57.4548 8.948 57.5508C8.948 57.6468 8.932 57.6948 8.9 57.6948C8.324 57.6948 7.868 57.6868 7.532 57.6708L5.636 57.6468L3.764 57.6708C3.428 57.6868 2.964 57.6948 2.372 57.6948Z" fill="#101D0F"/>
<path d="M47.46 57.6948C47.38 57.6948 47.316 57.6708 47.268 57.6228C47.236 57.5588 47.244 57.5108 47.292 57.4788C47.644 57.0468 48.124 56.4628 48.732 55.7268C49.868 54.3508 50.788 53.1828 51.492 52.2228C52.212 51.2628 52.82 50.2708 53.316 49.2468C53.812 48.2068 54.06 47.2308 54.06 46.3188C54.06 45.4228 53.804 44.6948 53.292 44.1348C52.796 43.5748 52.084 43.2948 51.156 43.2948C50.324 43.2948 49.62 43.5348 49.044 44.0148C48.468 44.4948 48.028 45.1828 47.724 46.0788C47.724 46.0948 47.692 46.1028 47.628 46.1028C47.5 46.1028 47.444 46.0708 47.46 46.0068C47.716 44.8548 48.212 43.9748 48.948 43.3668C49.684 42.7428 50.596 42.4308 51.684 42.4308C52.82 42.4308 53.724 42.7588 54.396 43.4148C55.068 44.0708 55.404 44.9108 55.404 45.9348C55.404 46.8788 55.124 47.8788 54.564 48.9348C54.02 49.9908 53.388 50.9668 52.668 51.8628C51.948 52.7428 51.076 53.7508 50.052 54.8868C49.396 55.5908 48.916 56.1428 48.612 56.5428C48.532 56.6548 48.564 56.7108 48.708 56.7108C50.9 56.7108 52.428 56.6868 53.292 56.6388C54.156 56.5748 54.772 56.4388 55.14 56.2308C55.508 56.0068 55.708 55.6228 55.74 55.0788C55.74 55.0468 55.78 55.0308 55.86 55.0308C55.956 55.0308 56.004 55.0468 56.004 55.0788L55.956 57.4308C55.956 57.4948 55.932 57.5588 55.884 57.6228C55.852 57.6708 55.804 57.6948 55.74 57.6948H47.46Z" fill="#101D0F"/>
<path d="M99.356 49.5348C100.412 49.5988 101.236 50.0068 101.828 50.7588C102.42 51.4948 102.716 52.4068 102.716 53.4948C102.716 54.3748 102.524 55.1588 102.14 55.8468C101.756 56.5188 101.228 57.0468 100.556 57.4308C99.884 57.7988 99.116 57.9828 98.252 57.9828C96.78 57.9828 95.492 57.3828 94.388 56.1828L94.364 56.1348C94.364 56.0708 94.396 56.0228 94.46 55.9908C94.54 55.9428 94.596 55.9428 94.628 55.9908C95.044 56.4548 95.556 56.8068 96.164 57.0468C96.788 57.2868 97.412 57.4068 98.036 57.4068C99.124 57.4068 99.94 57.0628 100.484 56.3748C101.028 55.6708 101.3 54.7668 101.3 53.6628C101.3 52.4948 100.956 51.5748 100.268 50.9028C99.58 50.2148 98.412 49.8708 96.764 49.8708C96.732 49.8708 96.708 49.8548 96.692 49.8228C96.676 49.7748 96.668 49.7188 96.668 49.6548C96.668 49.6068 96.676 49.5668 96.692 49.5348C96.724 49.4868 96.748 49.4628 96.764 49.4628C98.22 49.4628 99.252 49.1828 99.86 48.6228C100.484 48.0628 100.796 47.2868 100.796 46.2948C100.796 45.3508 100.548 44.6148 100.052 44.0868C99.556 43.5588 98.86 43.2948 97.964 43.2948C97.26 43.2948 96.604 43.4628 95.996 43.7988C95.388 44.1188 94.94 44.5988 94.652 45.2388C94.652 45.2548 94.636 45.2628 94.604 45.2628C94.556 45.2628 94.5 45.2468 94.436 45.2148C94.388 45.1828 94.372 45.1508 94.388 45.1188C94.756 44.2548 95.292 43.5908 95.996 43.1268C96.716 42.6628 97.548 42.4308 98.492 42.4308C99.628 42.4308 100.508 42.7508 101.132 43.3908C101.756 44.0308 102.068 44.8148 102.068 45.7428C102.068 46.5588 101.82 47.3188 101.324 48.0228C100.844 48.7268 100.188 49.2308 99.356 49.5348Z" fill="#101D0F"/>
<path d="M150.532 52.4388C150.596 52.4388 150.628 52.6068 150.628 52.9428C150.628 53.2788 150.596 53.4468 150.532 53.4468L149.86 53.4228C149.22 53.3908 148.732 53.3748 148.396 53.3748V55.7508C148.396 56.2468 148.436 56.6068 148.516 56.8308C148.612 57.0548 148.78 57.2068 149.02 57.2868C149.276 57.3668 149.684 57.4068 150.244 57.4068C150.276 57.4068 150.292 57.4548 150.292 57.5508C150.292 57.6468 150.276 57.6948 150.244 57.6948C149.828 57.6948 149.5 57.6868 149.26 57.6708L147.796 57.6468L146.044 57.6708C145.74 57.6868 145.324 57.6948 144.796 57.6948C144.748 57.6948 144.724 57.6468 144.724 57.5508C144.724 57.4548 144.748 57.4068 144.796 57.4068C145.58 57.4068 146.124 57.3748 146.428 57.3108C146.748 57.2468 146.956 57.1108 147.052 56.9028C147.164 56.6788 147.22 56.2948 147.22 55.7508V53.3268C145.012 53.2948 142.948 53.2788 141.028 53.2788C140.948 53.2788 140.884 53.2548 140.836 53.2068C140.804 53.1428 140.812 53.0788 140.86 53.0148L148.012 42.5748C148.044 42.5428 148.092 42.5268 148.156 42.5268C148.316 42.5268 148.396 42.5748 148.396 42.6708V52.5108L150.532 52.4388ZM142.132 52.5828C143.572 52.5828 145.268 52.5668 147.22 52.5348V44.6388L142.012 52.4148C141.948 52.5268 141.988 52.5828 142.132 52.5828Z" fill="#101D0F"/>
<path d="M193.492 48.7188C194.884 48.7188 195.98 49.1028 196.78 49.8708C197.58 50.6388 197.98 51.7428 197.98 53.1828C197.98 54.7028 197.54 55.8868 196.66 56.7348C195.796 57.5668 194.692 57.9828 193.348 57.9828C192.596 57.9828 191.924 57.8388 191.332 57.5508C190.74 57.2468 190.188 56.7908 189.676 56.1828L189.652 56.1348C189.652 56.0708 189.684 56.0228 189.748 55.9908C189.812 55.9428 189.86 55.9428 189.892 55.9908C190.292 56.4708 190.772 56.8308 191.332 57.0708C191.892 57.2948 192.492 57.4068 193.132 57.4068C194.284 57.4068 195.148 57.0468 195.724 56.3268C196.3 55.5908 196.588 54.6308 196.588 53.4468C196.588 52.1988 196.26 51.2148 195.604 50.4948C194.964 49.7588 193.972 49.3908 192.628 49.3908C191.684 49.3908 190.948 49.4948 190.42 49.7028C190.34 49.7028 190.276 49.6788 190.228 49.6308C190.18 49.5668 190.164 49.4948 190.18 49.4148L190.948 42.9828C190.964 42.8708 190.988 42.7988 191.02 42.7668C191.052 42.7188 191.132 42.6948 191.26 42.6948C193.42 42.6948 194.852 42.6868 195.556 42.6708C196.26 42.6388 196.716 42.5828 196.924 42.5028C197.148 42.4228 197.324 42.2548 197.452 41.9988C197.452 41.9668 197.484 41.9508 197.548 41.9508C197.596 41.9508 197.636 41.9668 197.668 41.9988C197.716 42.0148 197.732 42.0388 197.716 42.0708L197.428 43.3908C197.38 43.5668 197.308 43.6788 197.212 43.7268C197.132 43.7748 196.98 43.7988 196.756 43.7988L191.836 43.6788C191.628 43.6788 191.508 43.7908 191.476 44.0148L190.876 49.0788C191.836 48.8388 192.708 48.7188 193.492 48.7188Z" fill="#101D0F"/>
<path d="M242.508 49.5348C243.244 49.5348 243.876 49.7268 244.404 50.1108C244.948 50.4788 245.356 50.9668 245.628 51.5748C245.916 52.1828 246.06 52.8388 246.06 53.5428C246.06 54.3748 245.86 55.1348 245.46 55.8228C245.076 56.4948 244.532 57.0308 243.828 57.4308C243.124 57.8148 242.332 58.0068 241.452 58.0068C239.964 58.0068 238.844 57.4868 238.092 56.4468C237.34 55.3908 236.964 53.9988 236.964 52.2708C236.964 50.6868 237.268 49.1588 237.876 47.6868C238.484 46.1988 239.364 44.9748 240.516 44.0148C241.668 43.0388 243.012 42.5108 244.548 42.4308C244.596 42.4308 244.628 42.4708 244.644 42.5508C244.676 42.6148 244.66 42.6548 244.596 42.6708C243.252 42.9108 242.1 43.5028 241.14 44.4468C240.196 45.3748 239.484 46.5028 239.004 47.8308C238.524 49.1428 238.284 50.4868 238.284 51.8628C238.284 53.4308 238.596 54.7748 239.22 55.8948C239.86 57.0148 240.828 57.5748 242.124 57.5748C243.004 57.5748 243.66 57.2788 244.092 56.6868C244.524 56.0948 244.74 55.2708 244.74 54.2148C244.74 53.0308 244.484 52.0708 243.972 51.3348C243.46 50.5988 242.78 50.2308 241.932 50.2308C241.1 50.2308 240.332 50.6068 239.628 51.3588L239.58 51.3828C239.516 51.3828 239.452 51.3588 239.388 51.3108C239.34 51.2628 239.332 51.2228 239.364 51.1908C239.748 50.6468 240.212 50.2388 240.756 49.9668C241.316 49.6788 241.9 49.5348 242.508 49.5348Z" fill="#101D0F"/>
<path d="M287.484 57.1668C287.388 57.3908 287.308 57.5348 287.244 57.5988C287.196 57.6628 287.108 57.6948 286.98 57.6948H286.188C286.14 57.6948 286.092 57.6788 286.044 57.6468C286.012 57.5988 286.004 57.5428 286.02 57.4788L292.068 43.8468C292.132 43.7348 292.092 43.6788 291.948 43.6788C289.548 43.6788 287.884 43.7108 286.956 43.7748C286.028 43.8388 285.404 43.9748 285.084 44.1828C284.78 44.3908 284.548 44.7668 284.388 45.3108C284.388 45.3588 284.348 45.3828 284.268 45.3828C284.236 45.3828 284.196 45.3748 284.148 45.3588C284.116 45.3268 284.108 45.2948 284.124 45.2628L284.892 42.0708C284.908 42.0228 284.964 42.0068 285.06 42.0228C285.156 42.0228 285.196 42.0468 285.18 42.0948C285.164 42.1588 285.156 42.2388 285.156 42.3348C285.156 42.4788 285.228 42.5748 285.372 42.6228C285.532 42.6708 285.844 42.6948 286.308 42.6948H292.668C292.732 42.6948 292.788 42.7348 292.836 42.8148C292.9 42.8948 292.916 42.9588 292.884 43.0068L287.484 57.1668Z" fill="#101D0F"/>
<path d="M7.892 89.2468C8.612 89.6788 9.204 90.0948 9.668 90.4948C10.132 90.8788 10.516 91.3508 10.82 91.9108C11.124 92.4548 11.276 93.1028 11.276 93.8548C11.276 94.7028 11.06 95.4468 10.628 96.0868C10.196 96.7108 9.604 97.1908 8.852 97.5268C8.116 97.8468 7.3 98.0068 6.404 98.0068C5.444 98.0068 4.604 97.8308 3.884 97.4788C3.164 97.1268 2.612 96.6468 2.228 96.0388C1.86 95.4148 1.676 94.7188 1.676 93.9508C1.676 92.9588 2.012 92.0148 2.684 91.1188C3.372 90.2068 4.188 89.5108 5.132 89.0308C4.46 88.5508 3.94 88.0628 3.572 87.5668C3.22 87.0548 3.044 86.4388 3.044 85.7188C3.044 85.0468 3.228 84.4628 3.596 83.9668C3.964 83.4708 4.436 83.0948 5.012 82.8388C5.604 82.5668 6.212 82.4308 6.836 82.4308C7.492 82.4308 8.084 82.5668 8.612 82.8388C9.14 83.1108 9.548 83.4788 9.836 83.9428C10.124 84.4068 10.268 84.9108 10.268 85.4548C10.268 86.1908 10.052 86.8788 9.62 87.5188C9.204 88.1588 8.628 88.7348 7.892 89.2468ZM4.076 84.9988C4.076 85.6388 4.228 86.1908 4.532 86.6548C4.836 87.1188 5.196 87.5028 5.612 87.8068C6.044 88.1108 6.676 88.5188 7.508 89.0308L7.628 89.1028C8.588 88.1588 9.068 87.0388 9.068 85.7428C9.068 84.8148 8.796 84.0948 8.252 83.5828C7.708 83.0708 7.052 82.8148 6.284 82.8148C5.644 82.8148 5.116 83.0228 4.7 83.4388C4.284 83.8548 4.076 84.3748 4.076 84.9988ZM7.004 97.5988C7.98 97.5988 8.756 97.3268 9.332 96.7828C9.924 96.2228 10.22 95.4308 10.22 94.4068C10.22 93.6708 10.044 93.0388 9.692 92.5108C9.34 91.9668 8.916 91.5188 8.42 91.1668C7.94 90.7988 7.268 90.3588 6.404 89.8468C6.036 89.6228 5.7 89.4068 5.396 89.1988C4.628 89.6628 4.036 90.2708 3.62 91.0228C3.22 91.7588 3.02 92.5508 3.02 93.3988C3.02 94.1668 3.188 94.8708 3.524 95.5108C3.86 96.1508 4.324 96.6628 4.916 97.0468C5.524 97.4148 6.22 97.5988 7.004 97.5988Z" fill="#101D0F"/>
<path d="M43.42 90.7588C42.636 90.7588 41.956 90.5748 41.38 90.2068C40.82 89.8228 40.396 89.3268 40.108 88.7188C39.82 88.1108 39.676 87.4468 39.676 86.7268C39.676 85.8788 39.868 85.1348 40.252 84.4948C40.652 83.8388 41.196 83.3348 41.884 82.9828C42.588 82.6148 43.38 82.4308 44.26 82.4308C45.764 82.4308 46.892 82.9508 47.644 83.9908C48.396 85.0308 48.772 86.4148 48.772 88.1428C48.772 89.7268 48.468 91.2628 47.86 92.7508C47.252 94.2228 46.372 95.4388 45.22 96.3988C44.068 97.3588 42.724 97.8868 41.188 97.9828C41.14 97.9988 41.1 97.9588 41.068 97.8628C41.052 97.7828 41.076 97.7348 41.14 97.7188C42.484 97.4788 43.628 96.8948 44.572 95.9668C45.532 95.0388 46.252 93.9188 46.732 92.6068C47.212 91.2948 47.452 89.9508 47.452 88.5748C47.452 86.9908 47.132 85.6388 46.492 84.5188C45.868 83.3988 44.908 82.8388 43.612 82.8388C42.732 82.8388 42.076 83.1188 41.644 83.6788C41.212 84.2228 40.996 84.9988 40.996 86.0068C40.996 87.2548 41.284 88.2628 41.86 89.0308C42.452 89.7988 43.204 90.1828 44.116 90.1828C44.452 90.1828 44.764 90.1188 45.052 89.9908C45.356 89.8468 45.708 89.5908 46.108 89.2228C46.124 89.2068 46.148 89.1988 46.18 89.1988C46.228 89.1988 46.268 89.2228 46.3 89.2708C46.348 89.3188 46.364 89.3588 46.348 89.3908C45.996 89.8388 45.572 90.1828 45.076 90.4228C44.58 90.6468 44.028 90.7588 43.42 90.7588Z" fill="#101D0F"/>
<path d="M78.372 97.6948C78.34 97.6948 78.324 97.6468 78.324 97.5508C78.324 97.4548 78.34 97.4068 78.372 97.4068C79.14 97.4068 79.708 97.3668 80.076 97.2868C80.46 97.1908 80.724 97.0308 80.868 96.8068C81.012 96.5828 81.084 96.2308 81.084 95.7508V85.5028C81.084 84.7348 80.892 84.3508 80.508 84.3508C80.3 84.3508 80.012 84.4548 79.644 84.6628C79.292 84.8548 78.828 85.1668 78.252 85.5988L78.204 85.6228C78.14 85.6228 78.092 85.5828 78.06 85.5028C78.028 85.4228 78.044 85.3668 78.108 85.3348L81.9 82.5268C81.98 82.4788 82.036 82.4548 82.068 82.4548C82.1 82.4548 82.124 82.4708 82.14 82.5028C82.172 82.5348 82.188 82.5668 82.188 82.5988V95.7508C82.188 96.2468 82.252 96.6068 82.38 96.8308C82.508 97.0548 82.756 97.2068 83.124 97.2868C83.492 97.3668 84.084 97.4068 84.9 97.4068C84.932 97.4068 84.948 97.4548 84.948 97.5508C84.948 97.6468 84.932 97.6948 84.9 97.6948C84.324 97.6948 83.868 97.6868 83.532 97.6708L81.636 97.6468L79.764 97.6708C79.428 97.6868 78.964 97.6948 78.372 97.6948ZM94.299 98.0068C93.371 98.0068 92.539 97.6788 91.803 97.0228C91.067 96.3508 90.491 95.4228 90.075 94.2388C89.659 93.0548 89.451 91.7028 89.451 90.1828C89.451 88.6948 89.659 87.3588 90.075 86.1748C90.491 84.9908 91.067 84.0708 91.803 83.4148C92.555 82.7428 93.403 82.4068 94.347 82.4068C95.275 82.4068 96.099 82.7428 96.819 83.4148C97.539 84.0868 98.099 85.0148 98.499 86.1988C98.899 87.3828 99.099 88.7348 99.099 90.2548C99.099 91.7588 98.891 93.1028 98.475 94.2868C98.075 95.4548 97.507 96.3668 96.771 97.0228C96.051 97.6788 95.227 98.0068 94.299 98.0068ZM94.587 97.7188C95.611 97.7188 96.379 97.0788 96.891 95.7988C97.419 94.5028 97.683 92.7508 97.683 90.5428C97.683 88.8308 97.515 87.3828 97.179 86.1988C96.859 85.0148 96.427 84.1348 95.883 83.5588C95.339 82.9668 94.739 82.6708 94.083 82.6708C93.075 82.6708 92.283 83.3508 91.707 84.7108C91.147 86.0708 90.867 87.8388 90.867 90.0148C90.867 91.5028 91.019 92.8308 91.323 93.9988C91.627 95.1668 92.059 96.0788 92.619 96.7348C93.179 97.3908 93.835 97.7188 94.587 97.7188Z" fill="#101D0F"/>
<path d="M128.372 97.6948C128.34 97.6948 128.324 97.6468 128.324 97.5508C128.324 97.4548 128.34 97.4068 128.372 97.4068C129.14 97.4068 129.708 97.3668 130.076 97.2868C130.46 97.1908 130.724 97.0308 130.868 96.8068C131.012 96.5828 131.084 96.2308 131.084 95.7508V85.5028C131.084 84.7348 130.892 84.3508 130.508 84.3508C130.3 84.3508 130.012 84.4548 129.644 84.6628C129.292 84.8548 128.828 85.1668 128.252 85.5988L128.204 85.6228C128.14 85.6228 128.092 85.5828 128.06 85.5028C128.028 85.4228 128.044 85.3668 128.108 85.3348L131.9 82.5268C131.98 82.4788 132.036 82.4548 132.068 82.4548C132.1 82.4548 132.124 82.4708 132.14 82.5028C132.172 82.5348 132.188 82.5668 132.188 82.5988V95.7508C132.188 96.2468 132.252 96.6068 132.38 96.8308C132.508 97.0548 132.756 97.2068 133.124 97.2868C133.492 97.3668 134.084 97.4068 134.9 97.4068C134.932 97.4068 134.948 97.4548 134.948 97.5508C134.948 97.6468 134.932 97.6948 134.9 97.6948C134.324 97.6948 133.868 97.6868 133.532 97.6708L131.636 97.6468L129.764 97.6708C129.428 97.6868 128.964 97.6948 128.372 97.6948ZM140.147 97.6948C140.115 97.6948 140.099 97.6468 140.099 97.5508C140.099 97.4548 140.115 97.4068 140.147 97.4068C140.915 97.4068 141.483 97.3668 141.851 97.2868C142.235 97.1908 142.499 97.0308 142.643 96.8068C142.787 96.5828 142.859 96.2308 142.859 95.7508V85.5028C142.859 84.7348 142.667 84.3508 142.283 84.3508C142.075 84.3508 141.787 84.4548 141.419 84.6628C141.067 84.8548 140.603 85.1668 140.027 85.5988L139.979 85.6228C139.915 85.6228 139.867 85.5828 139.835 85.5028C139.803 85.4228 139.819 85.3668 139.883 85.3348L143.675 82.5268C143.755 82.4788 143.811 82.4548 143.843 82.4548C143.875 82.4548 143.899 82.4708 143.915 82.5028C143.947 82.5348 143.963 82.5668 143.963 82.5988V95.7508C143.963 96.2468 144.027 96.6068 144.155 96.8308C144.283 97.0548 144.531 97.2068 144.899 97.2868C145.267 97.3668 145.859 97.4068 146.675 97.4068C146.707 97.4068 146.723 97.4548 146.723 97.5508C146.723 97.6468 146.707 97.6948 146.675 97.6948C146.099 97.6948 145.643 97.6868 145.307 97.6708L143.411 97.6468L141.539 97.6708C141.203 97.6868 140.739 97.6948 140.147 97.6948Z" fill="#101D0F"/>
<path d="M176.372 97.6948C176.34 97.6948 176.324 97.6468 176.324 97.5508C176.324 97.4548 176.34 97.4068 176.372 97.4068C177.14 97.4068 177.708 97.3668 178.076 97.2868C178.46 97.1908 178.724 97.0308 178.868 96.8068C179.012 96.5828 179.084 96.2308 179.084 95.7508V85.5028C179.084 84.7348 178.892 84.3508 178.508 84.3508C178.3 84.3508 178.012 84.4548 177.644 84.6628C177.292 84.8548 176.828 85.1668 176.252 85.5988L176.204 85.6228C176.14 85.6228 176.092 85.5828 176.06 85.5028C176.028 85.4228 176.044 85.3668 176.108 85.3348L179.9 82.5268C179.98 82.4788 180.036 82.4548 180.068 82.4548C180.1 82.4548 180.124 82.4708 180.14 82.5028C180.172 82.5348 180.188 82.5668 180.188 82.5988V95.7508C180.188 96.2468 180.252 96.6068 180.38 96.8308C180.508 97.0548 180.756 97.2068 181.124 97.2868C181.492 97.3668 182.084 97.4068 182.9 97.4068C182.932 97.4068 182.948 97.4548 182.948 97.5508C182.948 97.6468 182.932 97.6948 182.9 97.6948C182.324 97.6948 181.868 97.6868 181.532 97.6708L179.636 97.6468L177.764 97.6708C177.428 97.6868 176.964 97.6948 176.372 97.6948ZM187.235 97.6948C187.155 97.6948 187.091 97.6708 187.043 97.6228C187.011 97.5588 187.019 97.5108 187.067 97.4788C187.419 97.0468 187.899 96.4628 188.507 95.7268C189.643 94.3508 190.563 93.1828 191.267 92.2228C191.987 91.2628 192.595 90.2708 193.091 89.2468C193.587 88.2068 193.835 87.2308 193.835 86.3188C193.835 85.4228 193.579 84.6948 193.067 84.1348C192.571 83.5748 191.859 83.2948 190.931 83.2948C190.099 83.2948 189.395 83.5348 188.819 84.0148C188.243 84.4948 187.803 85.1828 187.499 86.0788C187.499 86.0948 187.467 86.1028 187.403 86.1028C187.275 86.1028 187.219 86.0708 187.235 86.0068C187.491 84.8548 187.987 83.9748 188.723 83.3668C189.459 82.7428 190.371 82.4308 191.459 82.4308C192.595 82.4308 193.499 82.7588 194.171 83.4148C194.843 84.0708 195.179 84.9108 195.179 85.9348C195.179 86.8788 194.899 87.8788 194.339 88.9348C193.795 89.9908 193.163 90.9668 192.443 91.8628C191.723 92.7428 190.851 93.7508 189.827 94.8868C189.171 95.5908 188.691 96.1428 188.387 96.5428C188.307 96.6548 188.339 96.7108 188.483 96.7108C190.675 96.7108 192.203 96.6868 193.067 96.6388C193.931 96.5748 194.547 96.4388 194.915 96.2308C195.283 96.0068 195.483 95.6228 195.515 95.0788C195.515 95.0468 195.555 95.0308 195.635 95.0308C195.731 95.0308 195.779 95.0468 195.779 95.0788L195.731 97.4308C195.731 97.4948 195.707 97.5588 195.659 97.6228C195.627 97.6708 195.579 97.6948 195.515 97.6948H187.235Z" fill="#101D0F"/>
<path d="M225.372 97.6948C225.34 97.6948 225.324 97.6468 225.324 97.5508C225.324 97.4548 225.34 97.4068 225.372 97.4068C226.14 97.4068 226.708 97.3668 227.076 97.2868C227.46 97.1908 227.724 97.0308 227.868 96.8068C228.012 96.5828 228.084 96.2308 228.084 95.7508V85.5028C228.084 84.7348 227.892 84.3508 227.508 84.3508C227.3 84.3508 227.012 84.4548 226.644 84.6628C226.292 84.8548 225.828 85.1668 225.252 85.5988L225.204 85.6228C225.14 85.6228 225.092 85.5828 225.06 85.5028C225.028 85.4228 225.044 85.3668 225.108 85.3348L228.9 82.5268C228.98 82.4788 229.036 82.4548 229.068 82.4548C229.1 82.4548 229.124 82.4708 229.14 82.5028C229.172 82.5348 229.188 82.5668 229.188 82.5988V95.7508C229.188 96.2468 229.252 96.6068 229.38 96.8308C229.508 97.0548 229.756 97.2068 230.124 97.2868C230.492 97.3668 231.084 97.4068 231.9 97.4068C231.932 97.4068 231.948 97.4548 231.948 97.5508C231.948 97.6468 231.932 97.6948 231.9 97.6948C231.324 97.6948 230.868 97.6868 230.532 97.6708L228.636 97.6468L226.764 97.6708C226.428 97.6868 225.964 97.6948 225.372 97.6948ZM241.131 89.5348C242.187 89.5988 243.011 90.0068 243.603 90.7588C244.195 91.4948 244.491 92.4068 244.491 93.4948C244.491 94.3748 244.299 95.1588 243.915 95.8468C243.531 96.5188 243.003 97.0468 242.331 97.4308C241.659 97.7988 240.891 97.9828 240.027 97.9828C238.555 97.9828 237.267 97.3828 236.163 96.1828L236.139 96.1348C236.139 96.0708 236.171 96.0228 236.235 95.9908C236.315 95.9428 236.371 95.9428 236.403 95.9908C236.819 96.4548 237.331 96.8068 237.939 97.0468C238.563 97.2868 239.187 97.4068 239.811 97.4068C240.899 97.4068 241.715 97.0628 242.259 96.3748C242.803 95.6708 243.075 94.7668 243.075 93.6628C243.075 92.4948 242.731 91.5748 242.043 90.9028C241.355 90.2148 240.187 89.8708 238.539 89.8708C238.507 89.8708 238.483 89.8548 238.467 89.8228C238.451 89.7748 238.443 89.7188 238.443 89.6548C238.443 89.6068 238.451 89.5668 238.467 89.5348C238.499 89.4868 238.523 89.4628 238.539 89.4628C239.995 89.4628 241.027 89.1828 241.635 88.6228C242.259 88.0628 242.571 87.2868 242.571 86.2948C242.571 85.3508 242.323 84.6148 241.827 84.0868C241.331 83.5588 240.635 83.2948 239.739 83.2948C239.035 83.2948 238.379 83.4628 237.771 83.7988C237.163 84.1188 236.715 84.5988 236.427 85.2388C236.427 85.2548 236.411 85.2628 236.379 85.2628C236.331 85.2628 236.275 85.2468 236.211 85.2148C236.163 85.1828 236.147 85.1508 236.163 85.1188C236.531 84.2548 237.067 83.5908 237.771 83.1268C238.491 82.6628 239.323 82.4308 240.267 82.4308C241.403 82.4308 242.283 82.7508 242.907 83.3908C243.531 84.0308 243.843 84.8148 243.843 85.7428C243.843 86.5588 243.595 87.3188 243.099 88.0228C242.619 88.7268 241.963 89.2308 241.131 89.5348Z" fill="#101D0F"/>
<path d="M274.372 97.6948C274.34 97.6948 274.324 97.6468 274.324 97.5508C274.324 97.4548 274.34 97.4068 274.372 97.4068C275.14 97.4068 275.708 97.3668 276.076 97.2868C276.46 97.1908 276.724 97.0308 276.868 96.8068C277.012 96.5828 277.084 96.2308 277.084 95.7508V85.5028C277.084 84.7348 276.892 84.3508 276.508 84.3508C276.3 84.3508 276.012 84.4548 275.644 84.6628C275.292 84.8548 274.828 85.1668 274.252 85.5988L274.204 85.6228C274.14 85.6228 274.092 85.5828 274.06 85.5028C274.028 85.4228 274.044 85.3668 274.108 85.3348L277.9 82.5268C277.98 82.4788 278.036 82.4548 278.068 82.4548C278.1 82.4548 278.124 82.4708 278.14 82.5028C278.172 82.5348 278.188 82.5668 278.188 82.5988V95.7508C278.188 96.2468 278.252 96.6068 278.38 96.8308C278.508 97.0548 278.756 97.2068 279.124 97.2868C279.492 97.3668 280.084 97.4068 280.9 97.4068C280.932 97.4068 280.948 97.4548 280.948 97.5508C280.948 97.6468 280.932 97.6948 280.9 97.6948C280.324 97.6948 279.868 97.6868 279.532 97.6708L277.636 97.6468L275.764 97.6708C275.428 97.6868 274.964 97.6948 274.372 97.6948ZM294.307 92.4388C294.371 92.4388 294.403 92.6068 294.403 92.9428C294.403 93.2788 294.371 93.4468 294.307 93.4468L293.635 93.4228C292.995 93.3908 292.507 93.3748 292.171 93.3748V95.7508C292.171 96.2468 292.211 96.6068 292.291 96.8308C292.387 97.0548 292.555 97.2068 292.795 97.2868C293.051 97.3668 293.459 97.4068 294.019 97.4068C294.051 97.4068 294.067 97.4548 294.067 97.5508C294.067 97.6468 294.051 97.6948 294.019 97.6948C293.603 97.6948 293.275 97.6868 293.035 97.6708L291.571 97.6468L289.819 97.6708C289.515 97.6868 289.099 97.6948 288.571 97.6948C288.523 97.6948 288.499 97.6468 288.499 97.5508C288.499 97.4548 288.523 97.4068 288.571 97.4068C289.355 97.4068 289.899 97.3748 290.203 97.3108C290.523 97.2468 290.731 97.1108 290.827 96.9028C290.939 96.6788 290.995 96.2948 290.995 95.7508V93.3268C288.787 93.2948 286.723 93.2788 284.803 93.2788C284.723 93.2788 284.659 93.2548 284.611 93.2068C284.579 93.1428 284.587 93.0788 284.635 93.0148L291.787 82.5748C291.819 82.5428 291.867 82.5268 291.931 82.5268C292.091 82.5268 292.171 82.5748 292.171 82.6708V92.5108L294.307 92.4388ZM285.907 92.5828C287.347 92.5828 289.043 92.5668 290.995 92.5348V84.6388L285.787 92.4148C285.723 92.5268 285.763 92.5828 285.907 92.5828Z" fill="#101D0F"/>
<path d="M2.372 137.695C2.34 137.695 2.324 137.647 2.324 137.551C2.324 137.455 2.34 137.407 2.372 137.407C3.14 137.407 3.708 137.367 4.076 137.287C4.46 137.191 4.724 137.031 4.868 136.807C5.012 136.583 5.084 136.231 5.084 135.751V125.503C5.084 124.735 4.892 124.351 4.508 124.351C4.3 124.351 4.012 124.455 3.644 124.663C3.292 124.855 2.828 125.167 2.252 125.599L2.204 125.623C2.14 125.623 2.092 125.583 2.06 125.503C2.028 125.423 2.044 125.367 2.108 125.335L5.9 122.527C5.98 122.479 6.036 122.455 6.068 122.455C6.1 122.455 6.124 122.471 6.14 122.503C6.172 122.535 6.188 122.567 6.188 122.599V135.751C6.188 136.247 6.252 136.607 6.38 136.831C6.508 137.055 6.756 137.207 7.124 137.287C7.492 137.367 8.084 137.407 8.9 137.407C8.932 137.407 8.948 137.455 8.948 137.551C8.948 137.647 8.932 137.695 8.9 137.695C8.324 137.695 7.868 137.687 7.532 137.671L5.636 137.647L3.764 137.671C3.428 137.687 2.964 137.695 2.372 137.695ZM17.267 128.719C18.659 128.719 19.755 129.103 20.555 129.871C21.355 130.639 21.755 131.743 21.755 133.183C21.755 134.703 21.315 135.887 20.435 136.735C19.571 137.567 18.467 137.983 17.123 137.983C16.371 137.983 15.699 137.839 15.107 137.551C14.515 137.247 13.963 136.791 13.451 136.183L13.427 136.135C13.427 136.071 13.459 136.023 13.523 135.991C13.587 135.943 13.635 135.943 13.667 135.991C14.067 136.471 14.547 136.831 15.107 137.071C15.667 137.295 16.267 137.407 16.907 137.407C18.059 137.407 18.923 137.047 19.499 136.327C20.075 135.591 20.363 134.631 20.363 133.447C20.363 132.199 20.035 131.215 19.379 130.495C18.739 129.759 17.747 129.391 16.403 129.391C15.459 129.391 14.723 129.495 14.195 129.703C14.115 129.703 14.051 129.679 14.003 129.631C13.955 129.567 13.939 129.495 13.955 129.415L14.723 122.983C14.739 122.871 14.763 122.799 14.795 122.767C14.827 122.719 14.907 122.695 15.035 122.695C17.195 122.695 18.627 122.687 19.331 122.671C20.035 122.639 20.491 122.583 20.699 122.503C20.923 122.423 21.099 122.255 21.227 121.999C21.227 121.967 21.259 121.951 21.323 121.951C21.371 121.951 21.411 121.967 21.443 121.999C21.491 122.015 21.507 122.039 21.491 122.071L21.203 123.391C21.155 123.567 21.083 123.679 20.987 123.727C20.907 123.775 20.755 123.799 20.531 123.799L15.611 123.679C15.403 123.679 15.283 123.791 15.251 124.015L14.651 129.079C15.611 128.839 16.483 128.719 17.267 128.719Z" fill="#101D0F"/>
<path d="M46.872 137.695C46.84 137.695 46.824 137.647 46.824 137.551C46.824 137.455 46.84 137.407 46.872 137.407C47.64 137.407 48.208 137.367 48.576 137.287C48.96 137.191 49.224 137.031 49.368 136.807C49.512 136.583 49.584 136.231 49.584 135.751V125.503C49.584 124.735 49.392 124.351 49.008 124.351C48.8 124.351 48.512 124.455 48.144 124.663C47.792 124.855 47.328 125.167 46.752 125.599L46.704 125.623C46.64 125.623 46.592 125.583 46.56 125.503C46.528 125.423 46.544 125.367 46.608 125.335L50.4 122.527C50.48 122.479 50.536 122.455 50.568 122.455C50.6 122.455 50.624 122.471 50.64 122.503C50.672 122.535 50.688 122.567 50.688 122.599V135.751C50.688 136.247 50.752 136.607 50.88 136.831C51.008 137.055 51.256 137.207 51.624 137.287C51.992 137.367 52.584 137.407 53.4 137.407C53.432 137.407 53.448 137.455 53.448 137.551C53.448 137.647 53.432 137.695 53.4 137.695C52.824 137.695 52.368 137.687 52.032 137.671L50.136 137.647L48.264 137.671C47.928 137.687 47.464 137.695 46.872 137.695ZM63.783 129.535C64.519 129.535 65.151 129.727 65.679 130.111C66.223 130.479 66.631 130.967 66.903 131.575C67.191 132.183 67.335 132.839 67.335 133.543C67.335 134.375 67.135 135.135 66.735 135.823C66.351 136.495 65.807 137.031 65.103 137.431C64.399 137.815 63.607 138.007 62.727 138.007C61.239 138.007 60.119 137.487 59.367 136.447C58.615 135.391 58.239 133.999 58.239 132.271C58.239 130.687 58.543 129.159 59.151 127.687C59.759 126.199 60.639 124.975 61.791 124.015C62.943 123.039 64.287 122.511 65.823 122.431C65.871 122.431 65.903 122.471 65.919 122.551C65.951 122.615 65.935 122.655 65.871 122.671C64.527 122.911 63.375 123.503 62.415 124.447C61.471 125.375 60.759 126.503 60.279 127.831C59.799 129.143 59.559 130.487 59.559 131.863C59.559 133.431 59.871 134.775 60.495 135.895C61.135 137.015 62.103 137.575 63.399 137.575C64.279 137.575 64.935 137.279 65.367 136.687C65.799 136.095 66.015 135.271 66.015 134.215C66.015 133.031 65.759 132.071 65.247 131.335C64.735 130.599 64.055 130.231 63.207 130.231C62.375 130.231 61.607 130.607 60.903 131.359L60.855 131.383C60.791 131.383 60.727 131.359 60.663 131.311C60.615 131.263 60.607 131.223 60.639 131.191C61.023 130.647 61.487 130.239 62.031 129.967C62.591 129.679 63.175 129.535 63.783 129.535Z" fill="#101D0F"/>
<path d="M92.372 137.695C92.34 137.695 92.324 137.647 92.324 137.551C92.324 137.455 92.34 137.407 92.372 137.407C93.14 137.407 93.708 137.367 94.076 137.287C94.46 137.191 94.724 137.031 94.868 136.807C95.012 136.583 95.084 136.231 95.084 135.751V125.503C95.084 124.735 94.892 124.351 94.508 124.351C94.3 124.351 94.012 124.455 93.644 124.663C93.292 124.855 92.828 125.167 92.252 125.599L92.204 125.623C92.14 125.623 92.092 125.583 92.06 125.503C92.028 125.423 92.044 125.367 92.108 125.335L95.9 122.527C95.98 122.479 96.036 122.455 96.068 122.455C96.1 122.455 96.124 122.471 96.14 122.503C96.172 122.535 96.188 122.567 96.188 122.599V135.751C96.188 136.247 96.252 136.607 96.38 136.831C96.508 137.055 96.756 137.207 97.124 137.287C97.492 137.367 98.084 137.407 98.9 137.407C98.932 137.407 98.948 137.455 98.948 137.551C98.948 137.647 98.932 137.695 98.9 137.695C98.324 137.695 97.868 137.687 97.532 137.671L95.636 137.647L93.764 137.671C93.428 137.687 92.964 137.695 92.372 137.695ZM106.259 137.167C106.163 137.391 106.083 137.535 106.019 137.599C105.971 137.663 105.883 137.695 105.755 137.695H104.963C104.915 137.695 104.867 137.679 104.819 137.647C104.787 137.599 104.779 137.543 104.795 137.479L110.843 123.847C110.907 123.735 110.867 123.679 110.723 123.679C108.323 123.679 106.659 123.711 105.731 123.775C104.803 123.839 104.179 123.975 103.859 124.183C103.555 124.391 103.323 124.767 103.163 125.311C103.163 125.359 103.123 125.383 103.043 125.383C103.011 125.383 102.971 125.375 102.923 125.359C102.891 125.327 102.883 125.295 102.899 125.263L103.667 122.071C103.683 122.023 103.739 122.007 103.835 122.023C103.931 122.023 103.971 122.047 103.955 122.095C103.939 122.159 103.931 122.239 103.931 122.335C103.931 122.479 104.003 122.575 104.147 122.623C104.307 122.671 104.619 122.695 105.083 122.695H111.443C111.507 122.695 111.563 122.735 111.611 122.815C111.675 122.895 111.691 122.959 111.659 123.007L106.259 137.167Z" fill="#101D0F"/>
<path d="M136.872 137.695C136.84 137.695 136.824 137.647 136.824 137.551C136.824 137.455 136.84 137.407 136.872 137.407C137.64 137.407 138.208 137.367 138.576 137.287C138.96 137.191 139.224 137.031 139.368 136.807C139.512 136.583 139.584 136.231 139.584 135.751V125.503C139.584 124.735 139.392 124.351 139.008 124.351C138.8 124.351 138.512 124.455 138.144 124.663C137.792 124.855 137.328 125.167 136.752 125.599L136.704 125.623C136.64 125.623 136.592 125.583 136.56 125.503C136.528 125.423 136.544 125.367 136.608 125.335L140.4 122.527C140.48 122.479 140.536 122.455 140.568 122.455C140.6 122.455 140.624 122.471 140.64 122.503C140.672 122.535 140.688 122.567 140.688 122.599V135.751C140.688 136.247 140.752 136.607 140.88 136.831C141.008 137.055 141.256 137.207 141.624 137.287C141.992 137.367 142.584 137.407 143.4 137.407C143.432 137.407 143.448 137.455 143.448 137.551C143.448 137.647 143.432 137.695 143.4 137.695C142.824 137.695 142.368 137.687 142.032 137.671L140.136 137.647L138.264 137.671C137.928 137.687 137.464 137.695 136.872 137.695ZM154.167 129.247C154.887 129.679 155.479 130.095 155.943 130.495C156.407 130.879 156.791 131.351 157.095 131.911C157.399 132.455 157.551 133.103 157.551 133.855C157.551 134.703 157.335 135.447 156.903 136.087C156.471 136.711 155.879 137.191 155.127 137.527C154.391 137.847 153.575 138.007 152.679 138.007C151.719 138.007 150.879 137.831 150.159 137.479C149.439 137.127 148.887 136.647 148.503 136.039C148.135 135.415 147.951 134.719 147.951 133.951C147.951 132.959 148.287 132.015 148.959 131.119C149.647 130.207 150.463 129.511 151.407 129.031C150.735 128.551 150.215 128.063 149.847 127.567C149.495 127.055 149.319 126.439 149.319 125.719C149.319 125.047 149.503 124.463 149.871 123.967C150.239 123.471 150.711 123.095 151.287 122.839C151.879 122.567 152.487 122.431 153.111 122.431C153.767 122.431 154.359 122.567 154.887 122.839C155.415 123.111 155.823 123.479 156.111 123.943C156.399 124.407 156.543 124.911 156.543 125.455C156.543 126.191 156.327 126.879 155.895 127.519C155.479 128.159 154.903 128.735 154.167 129.247ZM150.351 124.999C150.351 125.639 150.503 126.191 150.807 126.655C151.111 127.119 151.471 127.503 151.887 127.807C152.319 128.111 152.951 128.519 153.783 129.031L153.903 129.103C154.863 128.159 155.343 127.039 155.343 125.743C155.343 124.815 155.071 124.095 154.527 123.583C153.983 123.071 153.327 122.815 152.559 122.815C151.919 122.815 151.391 123.023 150.975 123.439C150.559 123.855 150.351 124.375 150.351 124.999ZM153.279 137.599C154.255 137.599 155.031 137.327 155.607 136.783C156.199 136.223 156.495 135.431 156.495 134.407C156.495 133.671 156.319 133.039 155.967 132.511C155.615 131.967 155.191 131.519 154.695 131.167C154.215 130.799 153.543 130.359 152.679 129.847C152.311 129.623 151.975 129.407 151.671 129.199C150.903 129.663 150.311 130.271 149.895 131.023C149.495 131.759 149.295 132.551 149.295 133.399C149.295 134.167 149.463 134.871 149.799 135.511C150.135 136.151 150.599 136.663 151.191 137.047C151.799 137.415 152.495 137.599 153.279 137.599Z" fill="#101D0F"/>
<path d="M182.372 137.695C182.34 137.695 182.324 137.647 182.324 137.551C182.324 137.455 182.34 137.407 182.372 137.407C183.14 137.407 183.708 137.367 184.076 137.287C184.46 137.191 184.724 137.031 184.868 136.807C185.012 136.583 185.084 136.231 185.084 135.751V125.503C185.084 124.735 184.892 124.351 184.508 124.351C184.3 124.351 184.012 124.455 183.644 124.663C183.292 124.855 182.828 125.167 182.252 125.599L182.204 125.623C182.14 125.623 182.092 125.583 182.06 125.503C182.028 125.423 182.044 125.367 182.108 125.335L185.9 122.527C185.98 122.479 186.036 122.455 186.068 122.455C186.1 122.455 186.124 122.471 186.14 122.503C186.172 122.535 186.188 122.567 186.188 122.599V135.751C186.188 136.247 186.252 136.607 186.38 136.831C186.508 137.055 186.756 137.207 187.124 137.287C187.492 137.367 188.084 137.407 188.9 137.407C188.932 137.407 188.948 137.455 188.948 137.551C188.948 137.647 188.932 137.695 188.9 137.695C188.324 137.695 187.868 137.687 187.532 137.671L185.636 137.647L183.764 137.671C183.428 137.687 182.964 137.695 182.372 137.695ZM197.195 130.759C196.411 130.759 195.731 130.575 195.155 130.207C194.595 129.823 194.171 129.327 193.883 128.719C193.595 128.111 193.451 127.447 193.451 126.727C193.451 125.879 193.643 125.135 194.027 124.495C194.427 123.839 194.971 123.335 195.659 122.983C196.363 122.615 197.155 122.431 198.035 122.431C199.539 122.431 200.667 122.951 201.419 123.991C202.171 125.031 202.547 126.415 202.547 128.143C202.547 129.727 202.243 131.263 201.635 132.751C201.027 134.223 200.147 135.439 198.995 136.399C197.843 137.359 196.499 137.887 194.963 137.983C194.915 137.999 194.875 137.959 194.843 137.863C194.827 137.783 194.851 137.735 194.915 137.719C196.259 137.479 197.403 136.895 198.347 135.967C199.307 135.039 200.027 133.919 200.507 132.607C200.987 131.295 201.227 129.951 201.227 128.575C201.227 126.991 200.907 125.639 200.267 124.519C199.643 123.399 198.683 122.839 197.387 122.839C196.507 122.839 195.851 123.119 195.419 123.679C194.987 124.223 194.771 124.999 194.771 126.007C194.771 127.255 195.059 128.263 195.635 129.031C196.227 129.799 196.979 130.183 197.891 130.183C198.227 130.183 198.539 130.119 198.827 129.991C199.131 129.847 199.483 129.591 199.883 129.223C199.899 129.207 199.923 129.199 199.955 129.199C200.003 129.199 200.043 129.223 200.075 129.271C200.123 129.319 200.139 129.359 200.123 129.391C199.771 129.839 199.347 130.183 198.851 130.423C198.355 130.647 197.803 130.759 197.195 130.759Z" fill="#101D0F"/>
<path d="M226.96 137.695C226.88 137.695 226.816 137.671 226.768 137.623C226.736 137.559 226.744 137.511 226.792 137.479C227.144 137.047 227.624 136.463 228.232 135.727C229.368 134.351 230.288 133.183 230.992 132.223C231.712 131.263 232.32 130.271 232.816 129.247C233.312 128.207 233.56 127.231 233.56 126.319C233.56 125.423 233.304 124.695 232.792 124.135C232.296 123.575 231.584 123.295 230.656 123.295C229.824 123.295 229.12 123.535 228.544 124.015C227.968 124.495 227.528 125.183 227.224 126.079C227.224 126.095 227.192 126.103 227.128 126.103C227 126.103 226.944 126.071 226.96 126.007C227.216 124.855 227.712 123.975 228.448 123.367C229.184 122.743 230.096 122.431 231.184 122.431C232.32 122.431 233.224 122.759 233.896 123.415C234.568 124.071 234.904 124.911 234.904 125.935C234.904 126.879 234.624 127.879 234.064 128.935C233.52 129.991 232.888 130.967 232.168 131.863C231.448 132.743 230.576 133.751 229.552 134.887C228.896 135.591 228.416 136.143 228.112 136.543C228.032 136.655 228.064 136.711 228.208 136.711C230.4 136.711 231.928 136.687 232.792 136.639C233.656 136.575 234.272 136.439 234.64 136.231C235.008 136.007 235.208 135.623 235.24 135.079C235.24 135.047 235.28 135.031 235.36 135.031C235.456 135.031 235.504 135.047 235.504 135.079L235.456 137.431C235.456 137.495 235.432 137.559 235.384 137.623C235.352 137.671 235.304 137.695 235.24 137.695H226.96ZM245.205 138.007C244.277 138.007 243.445 137.679 242.709 137.023C241.973 136.351 241.397 135.423 240.981 134.239C240.565 133.055 240.357 131.703 240.357 130.183C240.357 128.695 240.565 127.359 240.981 126.175C241.397 124.991 241.973 124.071 242.709 123.415C243.461 122.743 244.309 122.407 245.253 122.407C246.181 122.407 247.005 122.743 247.725 123.415C248.445 124.087 249.005 125.015 249.405 126.199C249.805 127.383 250.005 128.735 250.005 130.255C250.005 131.759 249.797 133.103 249.381 134.287C248.981 135.455 248.413 136.367 247.677 137.023C246.957 137.679 246.133 138.007 245.205 138.007ZM245.493 137.719C246.517 137.719 247.285 137.079 247.797 135.799C248.325 134.503 248.589 132.751 248.589 130.543C248.589 128.831 248.421 127.383 248.085 126.199C247.765 125.015 247.333 124.135 246.789 123.559C246.245 122.967 245.645 122.671 244.989 122.671C243.981 122.671 243.189 123.351 242.613 124.711C242.053 126.071 241.773 127.839 241.773 130.015C241.773 131.503 241.925 132.831 242.229 133.999C242.533 135.167 242.965 136.079 243.525 136.735C244.085 137.391 244.741 137.719 245.493 137.719Z" fill="#101D0F"/>
<path d="M274.46 137.695C274.38 137.695 274.316 137.671 274.268 137.623C274.236 137.559 274.244 137.511 274.292 137.479C274.644 137.047 275.124 136.463 275.732 135.727C276.868 134.351 277.788 133.183 278.492 132.223C279.212 131.263 279.82 130.271 280.316 129.247C280.812 128.207 281.06 127.231 281.06 126.319C281.06 125.423 280.804 124.695 280.292 124.135C279.796 123.575 279.084 123.295 278.156 123.295C277.324 123.295 276.62 123.535 276.044 124.015C275.468 124.495 275.028 125.183 274.724 126.079C274.724 126.095 274.692 126.103 274.628 126.103C274.5 126.103 274.444 126.071 274.46 126.007C274.716 124.855 275.212 123.975 275.948 123.367C276.684 122.743 277.596 122.431 278.684 122.431C279.82 122.431 280.724 122.759 281.396 123.415C282.068 124.071 282.404 124.911 282.404 125.935C282.404 126.879 282.124 127.879 281.564 128.935C281.02 129.991 280.388 130.967 279.668 131.863C278.948 132.743 278.076 133.751 277.052 134.887C276.396 135.591 275.916 136.143 275.612 136.543C275.532 136.655 275.564 136.711 275.708 136.711C277.9 136.711 279.428 136.687 280.292 136.639C281.156 136.575 281.772 136.439 282.14 136.231C282.508 136.007 282.708 135.623 282.74 135.079C282.74 135.047 282.78 135.031 282.86 135.031C282.956 135.031 283.004 135.047 283.004 135.079L282.956 137.431C282.956 137.495 282.932 137.559 282.884 137.623C282.852 137.671 282.804 137.695 282.74 137.695H274.46ZM288.553 137.695C288.521 137.695 288.505 137.647 288.505 137.551C288.505 137.455 288.521 137.407 288.553 137.407C289.321 137.407 289.889 137.367 290.257 137.287C290.641 137.191 290.905 137.031 291.049 136.807C291.193 136.583 291.265 136.231 291.265 135.751V125.503C291.265 124.735 291.073 124.351 290.689 124.351C290.481 124.351 290.193 124.455 289.825 124.663C289.473 124.855 289.009 125.167 288.433 125.599L288.385 125.623C288.321 125.623 288.273 125.583 288.241 125.503C288.209 125.423 288.225 125.367 288.289 125.335L292.081 122.527C292.161 122.479 292.217 122.455 292.249 122.455C292.281 122.455 292.305 122.471 292.321 122.503C292.353 122.535 292.369 122.567 292.369 122.599V135.751C292.369 136.247 292.433 136.607 292.561 136.831C292.689 137.055 292.937 137.207 293.305 137.287C293.673 137.367 294.265 137.407 295.081 137.407C295.113 137.407 295.129 137.455 295.129 137.551C295.129 137.647 295.113 137.695 295.081 137.695C294.505 137.695 294.049 137.687 293.713 137.671L291.817 137.647L289.945 137.671C289.609 137.687 289.145 137.695 288.553 137.695Z" fill="#101D0F"/>
<path d="M1.46 177.695C1.38 177.695 1.316 177.671 1.268 177.623C1.236 177.559 1.244 177.511 1.292 177.479C1.644 177.047 2.124 176.463 2.732 175.727C3.868 174.351 4.788 173.183 5.492 172.223C6.212 171.263 6.82 170.271 7.316 169.247C7.812 168.207 8.06 167.231 8.06 166.319C8.06 165.423 7.804 164.695 7.292 164.135C6.796 163.575 6.084 163.295 5.156 163.295C4.324 163.295 3.62 163.535 3.044 164.015C2.468 164.495 2.028 165.183 1.724 166.079C1.724 166.095 1.692 166.103 1.628 166.103C1.5 166.103 1.444 166.071 1.46 166.007C1.716 164.855 2.212 163.975 2.948 163.367C3.684 162.743 4.596 162.431 5.684 162.431C6.82 162.431 7.724 162.759 8.396 163.415C9.068 164.071 9.404 164.911 9.404 165.935C9.404 166.879 9.124 167.879 8.564 168.935C8.02 169.991 7.388 170.967 6.668 171.863C5.948 172.743 5.076 173.751 4.052 174.887C3.396 175.591 2.916 176.143 2.612 176.543C2.532 176.655 2.564 176.711 2.708 176.711C4.9 176.711 6.428 176.687 7.292 176.639C8.156 176.575 8.772 176.439 9.14 176.231C9.508 176.007 9.708 175.623 9.74 175.079C9.74 175.047 9.78 175.031 9.86 175.031C9.956 175.031 10.004 175.047 10.004 175.079L9.956 177.431C9.956 177.495 9.932 177.559 9.884 177.623C9.852 177.671 9.804 177.695 9.74 177.695H1.46ZM14.6412 177.695C14.5612 177.695 14.4972 177.671 14.4492 177.623C14.4172 177.559 14.4252 177.511 14.4732 177.479C14.8252 177.047 15.3052 176.463 15.9132 175.727C17.0492 174.351 17.9692 173.183 18.6732 172.223C19.3932 171.263 20.0013 170.271 20.4972 169.247C20.9933 168.207 21.2413 167.231 21.2413 166.319C21.2413 165.423 20.9853 164.695 20.4733 164.135C19.9772 163.575 19.2652 163.295 18.3372 163.295C17.5052 163.295 16.8012 163.535 16.2252 164.015C15.6492 164.495 15.2092 165.183 14.9052 166.079C14.9052 166.095 14.8732 166.103 14.8092 166.103C14.6812 166.103 14.6252 166.071 14.6412 166.007C14.8972 164.855 15.3932 163.975 16.1292 163.367C16.8652 162.743 17.7772 162.431 18.8652 162.431C20.0012 162.431 20.9052 162.759 21.5773 163.415C22.2493 164.071 22.5853 164.911 22.5853 165.935C22.5853 166.879 22.3053 167.879 21.7453 168.935C21.2013 169.991 20.5692 170.967 19.8492 171.863C19.1292 172.743 18.2572 173.751 17.2332 174.887C16.5772 175.591 16.0972 176.143 15.7932 176.543C15.7132 176.655 15.7452 176.711 15.8892 176.711C18.0812 176.711 19.6093 176.687 20.4733 176.639C21.3372 176.575 21.9532 176.439 22.3212 176.231C22.6892 176.007 22.8893 175.623 22.9213 175.079C22.9213 175.047 22.9613 175.031 23.0412 175.031C23.1373 175.031 23.1853 175.047 23.1853 175.079L23.1373 177.431C23.1373 177.495 23.1133 177.559 23.0653 177.623C23.0333 177.671 22.9853 177.695 22.9213 177.695H14.6412Z" fill="#101D0F"/>
<path d="M46.46 177.695C46.38 177.695 46.316 177.671 46.268 177.623C46.236 177.559 46.244 177.511 46.292 177.479C46.644 177.047 47.124 176.463 47.732 175.727C48.868 174.351 49.788 173.183 50.492 172.223C51.212 171.263 51.82 170.271 52.316 169.247C52.812 168.207 53.06 167.231 53.06 166.319C53.06 165.423 52.804 164.695 52.292 164.135C51.796 163.575 51.084 163.295 50.156 163.295C49.324 163.295 48.62 163.535 48.044 164.015C47.468 164.495 47.028 165.183 46.724 166.079C46.724 166.095 46.692 166.103 46.628 166.103C46.5 166.103 46.444 166.071 46.46 166.007C46.716 164.855 47.212 163.975 47.948 163.367C48.684 162.743 49.596 162.431 50.684 162.431C51.82 162.431 52.724 162.759 53.396 163.415C54.068 164.071 54.404 164.911 54.404 165.935C54.404 166.879 54.124 167.879 53.564 168.935C53.02 169.991 52.388 170.967 51.668 171.863C50.948 172.743 50.076 173.751 49.052 174.887C48.396 175.591 47.916 176.143 47.612 176.543C47.532 176.655 47.564 176.711 47.708 176.711C49.9 176.711 51.428 176.687 52.292 176.639C53.156 176.575 53.772 176.439 54.14 176.231C54.508 176.007 54.708 175.623 54.74 175.079C54.74 175.047 54.78 175.031 54.86 175.031C54.956 175.031 55.004 175.047 55.004 175.079L54.956 177.431C54.956 177.495 54.932 177.559 54.884 177.623C54.852 177.671 54.804 177.695 54.74 177.695H46.46ZM64.5373 169.535C65.5932 169.599 66.4172 170.007 67.0092 170.759C67.6012 171.495 67.8972 172.407 67.8972 173.495C67.8972 174.375 67.7052 175.159 67.3212 175.847C66.9373 176.519 66.4093 177.047 65.7372 177.431C65.0652 177.799 64.2972 177.983 63.4332 177.983C61.9612 177.983 60.6732 177.383 59.5692 176.183L59.5452 176.135C59.5452 176.071 59.5772 176.023 59.6412 175.991C59.7212 175.943 59.7772 175.943 59.8092 175.991C60.2252 176.455 60.7372 176.807 61.3452 177.047C61.9692 177.287 62.5932 177.407 63.2172 177.407C64.3052 177.407 65.1212 177.063 65.6652 176.375C66.2092 175.671 66.4813 174.767 66.4813 173.663C66.4813 172.495 66.1372 171.575 65.4492 170.903C64.7612 170.215 63.5932 169.871 61.9452 169.871C61.9132 169.871 61.8892 169.855 61.8732 169.823C61.8572 169.775 61.8492 169.719 61.8492 169.655C61.8492 169.607 61.8572 169.567 61.8732 169.535C61.9052 169.487 61.9292 169.463 61.9452 169.463C63.4012 169.463 64.4332 169.183 65.0412 168.623C65.6653 168.063 65.9773 167.287 65.9773 166.295C65.9773 165.351 65.7292 164.615 65.2332 164.087C64.7372 163.559 64.0412 163.295 63.1452 163.295C62.4412 163.295 61.7852 163.463 61.1772 163.799C60.5692 164.119 60.1212 164.599 59.8332 165.239C59.8332 165.255 59.8172 165.263 59.7852 165.263C59.7372 165.263 59.6812 165.247 59.6172 165.215C59.5692 165.183 59.5532 165.151 59.5692 165.119C59.9372 164.255 60.4732 163.591 61.1772 163.127C61.8972 162.663 62.7292 162.431 63.6732 162.431C64.8092 162.431 65.6892 162.751 66.3133 163.391C66.9373 164.031 67.2493 164.815 67.2493 165.743C67.2493 166.559 67.0013 167.319 66.5052 168.023C66.0252 168.727 65.3692 169.231 64.5373 169.535Z" fill="#101D0F"/>
<path d="M91.46 177.695C91.38 177.695 91.316 177.671 91.268 177.623C91.236 177.559 91.244 177.511 91.292 177.479C91.644 177.047 92.124 176.463 92.732 175.727C93.868 174.351 94.788 173.183 95.492 172.223C96.212 171.263 96.82 170.271 97.316 169.247C97.812 168.207 98.06 167.231 98.06 166.319C98.06 165.423 97.804 164.695 97.292 164.135C96.796 163.575 96.084 163.295 95.156 163.295C94.324 163.295 93.62 163.535 93.044 164.015C92.468 164.495 92.028 165.183 91.724 166.079C91.724 166.095 91.692 166.103 91.628 166.103C91.5 166.103 91.444 166.071 91.46 166.007C91.716 164.855 92.212 163.975 92.948 163.367C93.684 162.743 94.596 162.431 95.684 162.431C96.82 162.431 97.724 162.759 98.396 163.415C99.068 164.071 99.404 164.911 99.404 165.935C99.404 166.879 99.124 167.879 98.564 168.935C98.02 169.991 97.388 170.967 96.668 171.863C95.948 172.743 95.076 173.751 94.052 174.887C93.396 175.591 92.916 176.143 92.612 176.543C92.532 176.655 92.564 176.711 92.708 176.711C94.9 176.711 96.428 176.687 97.292 176.639C98.156 176.575 98.772 176.439 99.14 176.231C99.508 176.007 99.708 175.623 99.74 175.079C99.74 175.047 99.78 175.031 99.86 175.031C99.956 175.031 100.004 175.047 100.004 175.079L99.956 177.431C99.956 177.495 99.932 177.559 99.884 177.623C99.852 177.671 99.804 177.695 99.74 177.695H91.46ZM113.713 172.439C113.777 172.439 113.809 172.607 113.809 172.943C113.809 173.279 113.777 173.447 113.713 173.447L113.041 173.423C112.401 173.391 111.913 173.375 111.577 173.375V175.751C111.577 176.247 111.617 176.607 111.697 176.831C111.793 177.055 111.961 177.207 112.201 177.287C112.457 177.367 112.865 177.407 113.425 177.407C113.457 177.407 113.473 177.455 113.473 177.551C113.473 177.647 113.457 177.695 113.425 177.695C113.009 177.695 112.681 177.687 112.441 177.671L110.977 177.647L109.225 177.671C108.921 177.687 108.505 177.695 107.977 177.695C107.929 177.695 107.905 177.647 107.905 177.551C107.905 177.455 107.929 177.407 107.977 177.407C108.761 177.407 109.305 177.375 109.609 177.311C109.929 177.247 110.137 177.111 110.233 176.903C110.345 176.679 110.401 176.295 110.401 175.751V173.327C108.193 173.295 106.129 173.279 104.209 173.279C104.129 173.279 104.065 173.255 104.017 173.207C103.985 173.143 103.993 173.079 104.041 173.015L111.193 162.575C111.225 162.543 111.273 162.527 111.337 162.527C111.497 162.527 111.577 162.575 111.577 162.671V172.511L113.713 172.439ZM105.313 172.583C106.753 172.583 108.449 172.567 110.401 172.535V164.639L105.193 172.415C105.129 172.527 105.169 172.583 105.313 172.583Z" fill="#101D0F"/>
<path d="M137.46 177.695C137.38 177.695 137.316 177.671 137.268 177.623C137.236 177.559 137.244 177.511 137.292 177.479C137.644 177.047 138.124 176.463 138.732 175.727C139.868 174.351 140.788 173.183 141.492 172.223C142.212 171.263 142.82 170.271 143.316 169.247C143.812 168.207 144.06 167.231 144.06 166.319C144.06 165.423 143.804 164.695 143.292 164.135C142.796 163.575 142.084 163.295 141.156 163.295C140.324 163.295 139.62 163.535 139.044 164.015C138.468 164.495 138.028 165.183 137.724 166.079C137.724 166.095 137.692 166.103 137.628 166.103C137.5 166.103 137.444 166.071 137.46 166.007C137.716 164.855 138.212 163.975 138.948 163.367C139.684 162.743 140.596 162.431 141.684 162.431C142.82 162.431 143.724 162.759 144.396 163.415C145.068 164.071 145.404 164.911 145.404 165.935C145.404 166.879 145.124 167.879 144.564 168.935C144.02 169.991 143.388 170.967 142.668 171.863C141.948 172.743 141.076 173.751 140.052 174.887C139.396 175.591 138.916 176.143 138.612 176.543C138.532 176.655 138.564 176.711 138.708 176.711C140.9 176.711 142.428 176.687 143.292 176.639C144.156 176.575 144.772 176.439 145.14 176.231C145.508 176.007 145.708 175.623 145.74 175.079C145.74 175.047 145.78 175.031 145.86 175.031C145.956 175.031 146.004 175.047 146.004 175.079L145.956 177.431C145.956 177.495 145.932 177.559 145.884 177.623C145.852 177.671 145.804 177.695 145.74 177.695H137.46ZM154.673 168.719C156.065 168.719 157.161 169.103 157.961 169.871C158.761 170.639 159.161 171.743 159.161 173.183C159.161 174.703 158.721 175.887 157.841 176.735C156.977 177.567 155.873 177.983 154.529 177.983C153.777 177.983 153.105 177.839 152.513 177.551C151.921 177.247 151.369 176.791 150.857 176.183L150.833 176.135C150.833 176.071 150.865 176.023 150.929 175.991C150.993 175.943 151.041 175.943 151.073 175.991C151.473 176.471 151.953 176.831 152.513 177.071C153.073 177.295 153.673 177.407 154.313 177.407C155.465 177.407 156.329 177.047 156.905 176.327C157.481 175.591 157.769 174.631 157.769 173.447C157.769 172.199 157.441 171.215 156.785 170.495C156.145 169.759 155.153 169.391 153.809 169.391C152.865 169.391 152.129 169.495 151.601 169.703C151.521 169.703 151.457 169.679 151.409 169.631C151.361 169.567 151.345 169.495 151.361 169.415L152.129 162.983C152.145 162.871 152.169 162.799 152.201 162.767C152.233 162.719 152.313 162.695 152.441 162.695C154.601 162.695 156.033 162.687 156.737 162.671C157.441 162.639 157.897 162.583 158.105 162.503C158.329 162.423 158.505 162.255 158.633 161.999C158.633 161.967 158.665 161.951 158.729 161.951C158.777 161.951 158.817 161.967 158.849 161.999C158.897 162.015 158.913 162.039 158.897 162.071L158.609 163.391C158.561 163.567 158.489 163.679 158.393 163.727C158.313 163.775 158.161 163.799 157.937 163.799L153.017 163.679C152.809 163.679 152.689 163.791 152.657 164.015L152.057 169.079C153.017 168.839 153.889 168.719 154.673 168.719Z" fill="#101D0F"/>
<path d="M182.46 177.695C182.38 177.695 182.316 177.671 182.268 177.623C182.236 177.559 182.244 177.511 182.292 177.479C182.644 177.047 183.124 176.463 183.732 175.727C184.868 174.351 185.788 173.183 186.492 172.223C187.212 171.263 187.82 170.271 188.316 169.247C188.812 168.207 189.06 167.231 189.06 166.319C189.06 165.423 188.804 164.695 188.292 164.135C187.796 163.575 187.084 163.295 186.156 163.295C185.324 163.295 184.62 163.535 184.044 164.015C183.468 164.495 183.028 165.183 182.724 166.079C182.724 166.095 182.692 166.103 182.628 166.103C182.5 166.103 182.444 166.071 182.46 166.007C182.716 164.855 183.212 163.975 183.948 163.367C184.684 162.743 185.596 162.431 186.684 162.431C187.82 162.431 188.724 162.759 189.396 163.415C190.068 164.071 190.404 164.911 190.404 165.935C190.404 166.879 190.124 167.879 189.564 168.935C189.02 169.991 188.388 170.967 187.668 171.863C186.948 172.743 186.076 173.751 185.052 174.887C184.396 175.591 183.916 176.143 183.612 176.543C183.532 176.655 183.564 176.711 183.708 176.711C185.9 176.711 187.428 176.687 188.292 176.639C189.156 176.575 189.772 176.439 190.14 176.231C190.508 176.007 190.708 175.623 190.74 175.079C190.74 175.047 190.78 175.031 190.86 175.031C190.956 175.031 191.004 175.047 191.004 175.079L190.956 177.431C190.956 177.495 190.932 177.559 190.884 177.623C190.852 177.671 190.804 177.695 190.74 177.695H182.46ZM201.689 169.535C202.425 169.535 203.057 169.727 203.585 170.111C204.129 170.479 204.537 170.967 204.809 171.575C205.097 172.183 205.241 172.839 205.241 173.543C205.241 174.375 205.041 175.135 204.641 175.823C204.257 176.495 203.713 177.031 203.009 177.431C202.305 177.815 201.513 178.007 200.633 178.007C199.145 178.007 198.025 177.487 197.273 176.447C196.521 175.391 196.145 173.999 196.145 172.271C196.145 170.687 196.449 169.159 197.057 167.687C197.665 166.199 198.545 164.975 199.697 164.015C200.849 163.039 202.193 162.511 203.729 162.431C203.777 162.431 203.809 162.471 203.825 162.551C203.857 162.615 203.841 162.655 203.777 162.671C202.433 162.911 201.281 163.503 200.321 164.447C199.377 165.375 198.665 166.503 198.185 167.831C197.705 169.143 197.465 170.487 197.465 171.863C197.465 173.431 197.777 174.775 198.401 175.895C199.041 177.015 200.009 177.575 201.305 177.575C202.185 177.575 202.841 177.279 203.273 176.687C203.705 176.095 203.921 175.271 203.921 174.215C203.921 173.031 203.665 172.071 203.153 171.335C202.641 170.599 201.961 170.231 201.113 170.231C200.281 170.231 199.513 170.607 198.809 171.359L198.761 171.383C198.697 171.383 198.633 171.359 198.569 171.311C198.521 171.263 198.513 171.223 198.545 171.191C198.929 170.647 199.393 170.239 199.937 169.967C200.497 169.679 201.081 169.535 201.689 169.535Z" fill="#101D0F"/>
<path d="M228.46 177.695C228.38 177.695 228.316 177.671 228.268 177.623C228.236 177.559 228.244 177.511 228.292 177.479C228.644 177.047 229.124 176.463 229.732 175.727C230.868 174.351 231.788 173.183 232.492 172.223C233.212 171.263 233.82 170.271 234.316 169.247C234.812 168.207 235.06 167.231 235.06 166.319C235.06 165.423 234.804 164.695 234.292 164.135C233.796 163.575 233.084 163.295 232.156 163.295C231.324 163.295 230.62 163.535 230.044 164.015C229.468 164.495 229.028 165.183 228.724 166.079C228.724 166.095 228.692 166.103 228.628 166.103C228.5 166.103 228.444 166.071 228.46 166.007C228.716 164.855 229.212 163.975 229.948 163.367C230.684 162.743 231.596 162.431 232.684 162.431C233.82 162.431 234.724 162.759 235.396 163.415C236.068 164.071 236.404 164.911 236.404 165.935C236.404 166.879 236.124 167.879 235.564 168.935C235.02 169.991 234.388 170.967 233.668 171.863C232.948 172.743 232.076 173.751 231.052 174.887C230.396 175.591 229.916 176.143 229.612 176.543C229.532 176.655 229.564 176.711 229.708 176.711C231.9 176.711 233.428 176.687 234.292 176.639C235.156 176.575 235.772 176.439 236.14 176.231C236.508 176.007 236.708 175.623 236.74 175.079C236.74 175.047 236.78 175.031 236.86 175.031C236.956 175.031 237.004 175.047 237.004 175.079L236.956 177.431C236.956 177.495 236.932 177.559 236.884 177.623C236.852 177.671 236.804 177.695 236.74 177.695H228.46ZM244.665 177.167C244.569 177.391 244.489 177.535 244.425 177.599C244.377 177.663 244.289 177.695 244.161 177.695H243.369C243.321 177.695 243.273 177.679 243.225 177.647C243.193 177.599 243.185 177.543 243.201 177.479L249.249 163.847C249.313 163.735 249.273 163.679 249.129 163.679C246.729 163.679 245.065 163.711 244.137 163.775C243.209 163.839 242.585 163.975 242.265 164.183C241.961 164.391 241.729 164.767 241.569 165.311C241.569 165.359 241.529 165.383 241.449 165.383C241.417 165.383 241.377 165.375 241.329 165.359C241.297 165.327 241.289 165.295 241.305 165.263L242.073 162.071C242.089 162.023 242.145 162.007 242.241 162.023C242.337 162.023 242.377 162.047 242.361 162.095C242.345 162.159 242.337 162.239 242.337 162.335C242.337 162.479 242.409 162.575 242.553 162.623C242.713 162.671 243.025 162.695 243.489 162.695H249.849C249.913 162.695 249.969 162.735 250.017 162.815C250.081 162.895 250.097 162.959 250.065 163.007L244.665 177.167Z" fill="#101D0F"/>
<path d="M273.46 177.695C273.38 177.695 273.316 177.671 273.268 177.623C273.236 177.559 273.244 177.511 273.292 177.479C273.644 177.047 274.124 176.463 274.732 175.727C275.868 174.351 276.788 173.183 277.492 172.223C278.212 171.263 278.82 170.271 279.316 169.247C279.812 168.207 280.06 167.231 280.06 166.319C280.06 165.423 279.804 164.695 279.292 164.135C278.796 163.575 278.084 163.295 277.156 163.295C276.324 163.295 275.62 163.535 275.044 164.015C274.468 164.495 274.028 165.183 273.724 166.079C273.724 166.095 273.692 166.103 273.628 166.103C273.5 166.103 273.444 166.071 273.46 166.007C273.716 164.855 274.212 163.975 274.948 163.367C275.684 162.743 276.596 162.431 277.684 162.431C278.82 162.431 279.724 162.759 280.396 163.415C281.068 164.071 281.404 164.911 281.404 165.935C281.404 166.879 281.124 167.879 280.564 168.935C280.02 169.991 279.388 170.967 278.668 171.863C277.948 172.743 277.076 173.751 276.052 174.887C275.396 175.591 274.916 176.143 274.612 176.543C274.532 176.655 274.564 176.711 274.708 176.711C276.9 176.711 278.428 176.687 279.292 176.639C280.156 176.575 280.772 176.439 281.14 176.231C281.508 176.007 281.708 175.623 281.74 175.079C281.74 175.047 281.78 175.031 281.86 175.031C281.956 175.031 282.004 175.047 282.004 175.079L281.956 177.431C281.956 177.495 281.932 177.559 281.884 177.623C281.852 177.671 281.804 177.695 281.74 177.695H273.46ZM293.073 169.247C293.793 169.679 294.385 170.095 294.849 170.495C295.313 170.879 295.697 171.351 296.001 171.911C296.305 172.455 296.457 173.103 296.457 173.855C296.457 174.703 296.241 175.447 295.809 176.087C295.377 176.711 294.785 177.191 294.033 177.527C293.297 177.847 292.481 178.007 291.585 178.007C290.625 178.007 289.785 177.831 289.065 177.479C288.345 177.127 287.793 176.647 287.409 176.039C287.041 175.415 286.857 174.719 286.857 173.951C286.857 172.959 287.193 172.015 287.865 171.119C288.553 170.207 289.369 169.511 290.313 169.031C289.641 168.551 289.121 168.063 288.753 167.567C288.401 167.055 288.225 166.439 288.225 165.719C288.225 165.047 288.409 164.463 288.777 163.967C289.145 163.471 289.617 163.095 290.193 162.839C290.785 162.567 291.393 162.431 292.017 162.431C292.673 162.431 293.265 162.567 293.793 162.839C294.321 163.111 294.729 163.479 295.017 163.943C295.305 164.407 295.449 164.911 295.449 165.455C295.449 166.191 295.233 166.879 294.801 167.519C294.385 168.159 293.809 168.735 293.073 169.247ZM289.257 164.999C289.257 165.639 289.409 166.191 289.713 166.655C290.017 167.119 290.377 167.503 290.793 167.807C291.225 168.111 291.857 168.519 292.689 169.031L292.809 169.103C293.769 168.159 294.249 167.039 294.249 165.743C294.249 164.815 293.977 164.095 293.433 163.583C292.889 163.071 292.233 162.815 291.465 162.815C290.825 162.815 290.297 163.023 289.881 163.439C289.465 163.855 289.257 164.375 289.257 164.999ZM292.185 177.599C293.161 177.599 293.937 177.327 294.513 176.783C295.105 176.223 295.401 175.431 295.401 174.407C295.401 173.671 295.225 173.039 294.873 172.511C294.521 171.967 294.097 171.519 293.601 171.167C293.121 170.799 292.449 170.359 291.585 169.847C291.217 169.623 290.881 169.407 290.577 169.199C289.809 169.663 289.217 170.271 288.801 171.023C288.401 171.759 288.201 172.551 288.201 173.399C288.201 174.167 288.369 174.871 288.705 175.511C289.041 176.151 289.505 176.663 290.097 177.047C290.705 177.415 291.401 177.599 292.185 177.599Z" fill="#101D0F"/>
<path d="M1.46 217.695C1.38 217.695 1.316 217.671 1.268 217.623C1.236 217.559 1.244 217.511 1.292 217.479C1.644 217.047 2.124 216.463 2.732 215.727C3.868 214.351 4.788 213.183 5.492 212.223C6.212 211.263 6.82 210.271 7.316 209.247C7.812 208.207 8.06 207.231 8.06 206.319C8.06 205.423 7.804 204.695 7.292 204.135C6.796 203.575 6.084 203.295 5.156 203.295C4.324 203.295 3.62 203.535 3.044 204.015C2.468 204.495 2.028 205.183 1.724 206.079C1.724 206.095 1.692 206.103 1.628 206.103C1.5 206.103 1.444 206.071 1.46 206.007C1.716 204.855 2.212 203.975 2.948 203.367C3.684 202.743 4.596 202.431 5.684 202.431C6.82 202.431 7.724 202.759 8.396 203.415C9.068 204.071 9.404 204.911 9.404 205.935C9.404 206.879 9.124 207.879 8.564 208.935C8.02 209.991 7.388 210.967 6.668 211.863C5.948 212.743 5.076 213.751 4.052 214.887C3.396 215.591 2.916 216.143 2.612 216.543C2.532 216.655 2.564 216.711 2.708 216.711C4.9 216.711 6.428 216.687 7.292 216.639C8.156 216.575 8.772 216.439 9.14 216.231C9.508 216.007 9.708 215.623 9.74 215.079C9.74 215.047 9.78 215.031 9.86 215.031C9.956 215.031 10.004 215.047 10.004 215.079L9.956 217.431C9.956 217.495 9.932 217.559 9.884 217.623C9.852 217.671 9.804 217.695 9.74 217.695H1.46ZM18.6012 210.759C17.8172 210.759 17.1372 210.575 16.5612 210.207C16.0012 209.823 15.5772 209.327 15.2892 208.719C15.0012 208.111 14.8572 207.447 14.8572 206.727C14.8572 205.879 15.0492 205.135 15.4332 204.495C15.8332 203.839 16.3772 203.335 17.0652 202.983C17.7692 202.615 18.5612 202.431 19.4412 202.431C20.9453 202.431 22.0733 202.951 22.8252 203.991C23.5773 205.031 23.9533 206.415 23.9533 208.143C23.9533 209.727 23.6493 211.263 23.0412 212.751C22.4333 214.223 21.5533 215.439 20.4012 216.399C19.2492 217.359 17.9052 217.887 16.3692 217.983C16.3212 217.999 16.2812 217.959 16.2492 217.863C16.2332 217.783 16.2572 217.735 16.3212 217.719C17.6652 217.479 18.8092 216.895 19.7533 215.967C20.7133 215.039 21.4333 213.919 21.9133 212.607C22.3933 211.295 22.6333 209.951 22.6333 208.575C22.6333 206.991 22.3133 205.639 21.6732 204.519C21.0492 203.399 20.0892 202.839 18.7932 202.839C17.9132 202.839 17.2572 203.119 16.8252 203.679C16.3932 204.223 16.1772 204.999 16.1772 206.007C16.1772 207.255 16.4652 208.263 17.0412 209.031C17.6332 209.799 18.3852 210.183 19.2972 210.183C19.6333 210.183 19.9453 210.119 20.2332 209.991C20.5373 209.847 20.8893 209.591 21.2892 209.223C21.3052 209.207 21.3293 209.199 21.3613 209.199C21.4093 209.199 21.4492 209.223 21.4813 209.271C21.5292 209.319 21.5452 209.359 21.5293 209.391C21.1772 209.839 20.7532 210.183 20.2573 210.423C19.7613 210.647 19.2092 210.759 18.6012 210.759Z" fill="#101D0F"/>
<path d="M51.356 209.535C52.412 209.599 53.236 210.007 53.828 210.759C54.42 211.495 54.716 212.407 54.716 213.495C54.716 214.375 54.524 215.159 54.14 215.847C53.756 216.519 53.228 217.047 52.556 217.431C51.884 217.799 51.116 217.983 50.252 217.983C48.78 217.983 47.492 217.383 46.388 216.183L46.364 216.135C46.364 216.071 46.396 216.023 46.46 215.991C46.54 215.943 46.596 215.943 46.628 215.991C47.044 216.455 47.556 216.807 48.164 217.047C48.788 217.287 49.412 217.407 50.036 217.407C51.124 217.407 51.94 217.063 52.484 216.375C53.028 215.671 53.3 214.767 53.3 213.663C53.3 212.495 52.956 211.575 52.268 210.903C51.58 210.215 50.412 209.871 48.764 209.871C48.732 209.871 48.708 209.855 48.692 209.823C48.676 209.775 48.668 209.719 48.668 209.655C48.668 209.607 48.676 209.567 48.692 209.535C48.724 209.487 48.748 209.463 48.764 209.463C50.22 209.463 51.252 209.183 51.86 208.623C52.484 208.063 52.796 207.287 52.796 206.295C52.796 205.351 52.548 204.615 52.052 204.087C51.556 203.559 50.86 203.295 49.964 203.295C49.26 203.295 48.604 203.463 47.996 203.799C47.388 204.119 46.94 204.599 46.652 205.239C46.652 205.255 46.636 205.263 46.604 205.263C46.556 205.263 46.5 205.247 46.436 205.215C46.388 205.183 46.372 205.151 46.388 205.119C46.756 204.255 47.292 203.591 47.996 203.127C48.716 202.663 49.548 202.431 50.492 202.431C51.628 202.431 52.508 202.751 53.132 203.391C53.756 204.031 54.068 204.815 54.068 205.743C54.068 206.559 53.82 207.319 53.324 208.023C52.844 208.727 52.188 209.231 51.356 209.535ZM64.3537 218.007C63.4257 218.007 62.5937 217.679 61.8577 217.023C61.1217 216.351 60.5457 215.423 60.1297 214.239C59.7137 213.055 59.5057 211.703 59.5057 210.183C59.5057 208.695 59.7137 207.359 60.1297 206.175C60.5457 204.991 61.1217 204.071 61.8577 203.415C62.6097 202.743 63.4577 202.407 64.4017 202.407C65.3297 202.407 66.1537 202.743 66.8737 203.415C67.5937 204.087 68.1537 205.015 68.5537 206.199C68.9537 207.383 69.1537 208.735 69.1537 210.255C69.1537 211.759 68.9457 213.103 68.5297 214.287C68.1297 215.455 67.5617 216.367 66.8257 217.023C66.1057 217.679 65.2817 218.007 64.3537 218.007ZM64.6417 217.719C65.6657 217.719 66.4337 217.079 66.9457 215.799C67.4737 214.503 67.7377 212.751 67.7377 210.543C67.7377 208.831 67.5697 207.383 67.2337 206.199C66.9137 205.015 66.4817 204.135 65.9377 203.559C65.3937 202.967 64.7937 202.671 64.1377 202.671C63.1297 202.671 62.3377 203.351 61.7617 204.711C61.2017 206.071 60.9217 207.839 60.9217 210.015C60.9217 211.503 61.0737 212.831 61.3777 213.999C61.6817 215.167 62.1137 216.079 62.6737 216.735C63.2337 217.391 63.8897 217.719 64.6417 217.719Z" fill="#101D0F"/>
<path d="M96.356 209.535C97.412 209.599 98.236 210.007 98.828 210.759C99.42 211.495 99.716 212.407 99.716 213.495C99.716 214.375 99.524 215.159 99.14 215.847C98.756 216.519 98.228 217.047 97.556 217.431C96.884 217.799 96.116 217.983 95.252 217.983C93.78 217.983 92.492 217.383 91.388 216.183L91.364 216.135C91.364 216.071 91.396 216.023 91.46 215.991C91.54 215.943 91.596 215.943 91.628 215.991C92.044 216.455 92.556 216.807 93.164 217.047C93.788 217.287 94.412 217.407 95.036 217.407C96.124 217.407 96.94 217.063 97.484 216.375C98.028 215.671 98.3 214.767 98.3 213.663C98.3 212.495 97.956 211.575 97.268 210.903C96.58 210.215 95.412 209.871 93.764 209.871C93.732 209.871 93.708 209.855 93.692 209.823C93.676 209.775 93.668 209.719 93.668 209.655C93.668 209.607 93.676 209.567 93.692 209.535C93.724 209.487 93.748 209.463 93.764 209.463C95.22 209.463 96.252 209.183 96.86 208.623C97.484 208.063 97.796 207.287 97.796 206.295C97.796 205.351 97.548 204.615 97.052 204.087C96.556 203.559 95.86 203.295 94.964 203.295C94.26 203.295 93.604 203.463 92.996 203.799C92.388 204.119 91.94 204.599 91.652 205.239C91.652 205.255 91.636 205.263 91.604 205.263C91.556 205.263 91.5 205.247 91.436 205.215C91.388 205.183 91.372 205.151 91.388 205.119C91.756 204.255 92.292 203.591 92.996 203.127C93.716 202.663 94.548 202.431 95.492 202.431C96.628 202.431 97.508 202.751 98.132 203.391C98.756 204.031 99.068 204.815 99.068 205.743C99.068 206.559 98.82 207.319 98.324 208.023C97.844 208.727 97.188 209.231 96.356 209.535ZM105.202 217.695C105.17 217.695 105.154 217.647 105.154 217.551C105.154 217.455 105.17 217.407 105.202 217.407C105.97 217.407 106.538 217.367 106.906 217.287C107.29 217.191 107.554 217.031 107.698 216.807C107.842 216.583 107.914 216.231 107.914 215.751V205.503C107.914 204.735 107.722 204.351 107.338 204.351C107.13 204.351 106.842 204.455 106.474 204.663C106.122 204.855 105.658 205.167 105.082 205.599L105.034 205.623C104.97 205.623 104.922 205.583 104.89 205.503C104.858 205.423 104.874 205.367 104.938 205.335L108.73 202.527C108.81 202.479 108.866 202.455 108.898 202.455C108.93 202.455 108.954 202.471 108.97 202.503C109.002 202.535 109.018 202.567 109.018 202.599V215.751C109.018 216.247 109.082 216.607 109.21 216.831C109.338 217.055 109.586 217.207 109.954 217.287C110.322 217.367 110.914 217.407 111.73 217.407C111.762 217.407 111.778 217.455 111.778 217.551C111.778 217.647 111.762 217.695 111.73 217.695C111.154 217.695 110.698 217.687 110.362 217.671L108.466 217.647L106.594 217.671C106.258 217.687 105.794 217.695 105.202 217.695Z" fill="#101D0F"/>
<path d="M267 56.2679C267 67.2679 259.359 75.7679 245 75.7679C230.641 75.7679 219 64.1273 219 49.7679C219 35.4085 230.641 23.7679 245 23.7679C259.359 23.7679 268 45.2679 267 56.2679Z" stroke="#D93737" stroke-width="6" stroke-linecap="round" stroke-linejoin="round"/>
<path d="M265.5 64.2681C273 32.7679 243.5 12.7681 210 20.2681" stroke="#D93737" stroke-width="6" stroke-linecap="round" stroke-linejoin="round"/>
<path d="M268.029 22.9211C270.251 20.6989 274.174 19.3578 277.068 18.1357C281.629 16.2101 286.903 13.7854 291.956 13.7854" stroke="#D93737" stroke-width="3" stroke-linecap="round" stroke-linejoin="round"/>
<path d="M214.503 67.3229C211.528 68.3369 207.417 67.8101 204.28 67.63C199.338 67.3463 193.535 67.1957 189 64.9667" stroke="#D93737" stroke-width="3" stroke-linecap="round" stroke-linejoin="round"/>
<path d="M261.503 19.8758C264.449 16.5624 266.607 12.1625 269.769 9" stroke="#D93737" stroke-width="3" stroke-linecap="round" stroke-linejoin="round"/>
<path d="M219.016 72.9344C214.911 74.6087 211.034 77.6055 206.8 79.0486" stroke="#D93737" stroke-width="3" stroke-linecap="round" stroke-linejoin="round"/>
<path d="M2.328 16V4.72H3.864V13.84H3.496L10.408 4.72H11.688V16H10.136V6.88H10.504L3.576 16H2.328ZM21.192 16.144C20.0933 16.144 19.1973 15.824 18.504 15.184C17.8107 14.5333 17.4107 13.632 17.304 12.48H15.784V16H14.216V7.936H15.784V11.216H17.32C17.4693 10.1387 17.8853 9.30133 18.568 8.704C19.2507 8.096 20.1253 7.792 21.192 7.792C21.992 7.792 22.6853 7.96267 23.272 8.304C23.8693 8.63467 24.328 9.10933 24.648 9.728C24.9787 10.3467 25.144 11.0933 25.144 11.968C25.144 12.832 24.9787 13.5787 24.648 14.208C24.328 14.8267 23.8693 15.3067 23.272 15.648C22.6853 15.9787 21.992 16.144 21.192 16.144ZM21.192 14.896C21.896 14.896 22.456 14.6507 22.872 14.16C23.2987 13.6693 23.512 12.9387 23.512 11.968C23.512 11.008 23.2987 10.2827 22.872 9.792C22.456 9.30133 21.896 9.056 21.192 9.056C20.488 9.056 19.9227 9.30133 19.496 9.792C19.08 10.2827 18.872 11.008 18.872 11.968C18.872 12.9387 19.08 13.6693 19.496 14.16C19.9227 14.6507 20.488 14.896 21.192 14.896ZM26.6613 16.208L26.1173 14.928C26.4799 14.7787 26.7839 14.592 27.0293 14.368C27.2853 14.1333 27.4826 13.8347 27.6213 13.472C27.7706 13.1093 27.8773 12.6613 27.9413 12.128C28.0053 11.5947 28.0373 10.9493 28.0373 10.192V7.936H34.1173V16H32.5173V9.2H29.5253V10.24C29.5253 11.456 29.4293 12.464 29.2373 13.264C29.0453 14.064 28.7359 14.6987 28.3093 15.168C27.8933 15.6267 27.3439 15.9733 26.6613 16.208ZM36.5441 16V7.936H38.1441V10.752H40.4321C41.4881 10.752 42.2828 10.976 42.8161 11.424C43.3495 11.8613 43.6161 12.5013 43.6161 13.344C43.6161 13.888 43.4935 14.3627 43.2481 14.768C43.0028 15.1627 42.6401 15.4667 42.1601 15.68C41.6908 15.8933 41.1148 16 40.4321 16H36.5441ZM38.1441 14.896H40.2561C40.8535 14.896 41.3121 14.7733 41.6321 14.528C41.9521 14.272 42.1121 13.8827 42.1121 13.36C42.1121 12.8373 41.9521 12.4587 41.6321 12.224C41.3228 11.9787 40.8641 11.856 40.2561 11.856H38.1441V14.896ZM49.8124 16V14.768L53.6844 10.72C54.1857 10.1973 54.559 9.70667 54.8044 9.248C55.0497 8.78933 55.1724 8.31467 55.1724 7.824C55.1724 7.216 54.9804 6.75733 54.5964 6.448C54.223 6.13867 53.679 5.984 52.9644 5.984C52.399 5.984 51.8657 6.08533 51.3644 6.288C50.8737 6.49067 50.399 6.8 49.9404 7.216L49.3644 5.952C49.8124 5.536 50.367 5.20533 51.0284 4.96C51.7004 4.704 52.4097 4.576 53.1564 4.576C54.3297 4.576 55.231 4.84267 55.8604 5.376C56.5004 5.90933 56.8204 6.672 56.8204 7.664C56.8204 8.368 56.6497 9.04533 56.3084 9.696C55.967 10.336 55.455 10.9973 54.7724 11.68L51.4284 15.056V14.608H57.2844V16H49.8124ZM62.8781 16.144C61.5768 16.144 60.5741 15.648 59.8701 14.656C59.1768 13.6533 58.8301 12.2187 58.8301 10.352C58.8301 8.45333 59.1768 7.01867 59.8701 6.048C60.5741 5.06667 61.5768 4.576 62.8781 4.576C64.1901 4.576 65.1928 5.06667 65.8861 6.048C66.5795 7.01867 66.9261 8.448 66.9261 10.336C66.9261 12.2133 66.5741 13.6533 65.8701 14.656C65.1768 15.648 64.1795 16.144 62.8781 16.144ZM62.8781 14.752C63.6995 14.752 64.3075 14.3947 64.7021 13.68C65.1075 12.9653 65.3101 11.8507 65.3101 10.336C65.3101 8.81067 65.1075 7.70133 64.7021 7.008C64.3075 6.304 63.6995 5.952 62.8781 5.952C62.0675 5.952 61.4595 6.304 61.0541 7.008C60.6488 7.70133 60.4461 8.80533 60.4461 10.32C60.4461 11.8453 60.6488 12.9653 61.0541 13.68C61.4701 14.3947 62.0781 14.752 62.8781 14.752ZM68.9999 16V14.768L72.8719 10.72C73.3732 10.1973 73.7465 9.70667 73.9919 9.248C74.2372 8.78933 74.3599 8.31467 74.3599 7.824C74.3599 7.216 74.1679 6.75733 73.7839 6.448C73.4105 6.13867 72.8665 5.984 72.1519 5.984C71.5865 5.984 71.0532 6.08533 70.5519 6.288C70.0612 6.49067 69.5865 6.8 69.1279 7.216L68.5519 5.952C68.9999 5.536 69.5545 5.20533 70.2159 4.96C70.8879 4.704 71.5972 4.576 72.3439 4.576C73.5172 4.576 74.4185 4.84267 75.0479 5.376C75.6879 5.90933 76.0079 6.672 76.0079 7.664C76.0079 8.368 75.8372 9.04533 75.4959 9.696C75.1545 10.336 74.6425 10.9973 73.9599 11.68L70.6159 15.056V14.608H76.4719V16H68.9999ZM83.2176 16V13.664H78.0016V12.48L83.4896 4.72H84.8336V12.368H86.5136V13.664H84.8336V16H83.2176ZM83.2176 12.368V6.688H83.5856L79.2976 12.768V12.368H83.2176Z" fill="#101D0F"/>
</svg>
